<?xml version="1.0" standalone="no"?>
<!DOCTYPE svg PUBLIC "-//W3C//DTD SVG 20010904//EN"
 "http://www.w3.org/TR/2001/REC-SVG-20010904/DTD/svg10.dtd">
<svg version="1.0" xmlns="http://www.w3.org/2000/svg"
 width="137.000000pt" height="130.000000pt" viewBox="0 0 137.000000 130.000000"
 preserveAspectRatio="xMidYMid meet">

<g transform="translate(0.000000,130.000000) scale(0.100000,-0.100000)"
fill="#000000" stroke="none">
<path d="M396 1060 c-152 -144 -189 -385 -88 -574 37 -70 135 -165 206 -199
91 -45 193 -62 280 -48 93 15 203 68 267 127 61 58 91 106 32 53 -76 -69 -190
-109 -307 -109 -220 1 -428 186 -454 404 -17 133 21 272 98 359 46 53 28 46
-34 -13z"/>
</g>
</svg>
